<svg width="37" height="32" viewBox="0 0 37 32" fill="none" xmlns="http://www.w3.org/2000/svg">
<path d="M12.8079 0.00012207H4.26931C3.08325 0.00012207 2.07531 0.41523 1.24501 1.24521C0.415108 2.07535 0 3.08329 0 4.26943V12.8077C0 13.9938 0.414874 15.0016 1.24501 15.8316C2.07523 16.6615 3.08348 17.0767 4.26931 17.0767H9.25006C9.84281 17.0767 10.3469 17.2844 10.762 17.6993C11.1772 18.114 11.3846 18.6183 11.3846 19.2115V19.9227C11.3846 21.4941 10.8286 22.8352 9.71696 23.9472C8.6052 25.0586 7.26377 25.6146 5.6922 25.6146H4.26931C3.88364 25.6146 3.55023 25.7558 3.26845 26.0372C2.98691 26.3187 2.84602 26.6523 2.84602 27.0378V29.8843C2.84602 30.2691 2.98691 30.6033 3.26845 30.8849C3.55046 31.1663 3.88356 31.3075 4.26931 31.3075H5.69228C7.2341 31.3075 8.70536 31.0069 10.1063 30.4068C11.5071 29.8065 12.7189 28.9947 13.7418 27.9718C14.7645 26.9488 15.5761 25.7373 16.1764 24.3364C16.7767 22.9355 17.0769 21.4643 17.0769 19.9227V4.26912C17.0769 3.08298 16.6618 2.07512 15.8318 1.24514C15.0018 0.415152 13.9937 0.00012207 12.8079 0.00012207Z" fill="#F6762C"/>
<path d="M35.7546 1.24509C34.9247 0.415108 33.9167 0 32.7306 0H24.1923C23.0062 0 21.9983 0.415108 21.1683 1.24509C20.3384 2.07531 19.9235 3.08317 19.9235 4.26931V12.8076C19.9235 13.9937 20.3384 15.0014 21.1683 15.8314C21.9983 16.6613 23.0063 17.0766 24.1923 17.0766H29.1731C29.7658 17.0766 30.2703 17.2842 30.6854 17.6992C31.1 18.1141 31.3079 18.6182 31.3079 19.2114V19.9225C31.3079 21.494 30.7519 22.8351 29.64 23.9471C28.5283 25.0585 27.1872 25.6144 25.6155 25.6144H24.1923C23.8069 25.6144 23.4732 25.7556 23.1918 26.0371C22.9101 26.3186 22.769 26.6522 22.769 27.0376V29.8841C22.769 30.2689 22.9101 30.6032 23.1918 30.8848C23.4731 31.1661 23.8069 31.3074 24.1923 31.3074H25.6155C27.1571 31.3074 28.6283 31.0068 30.0294 30.4066C31.43 29.8064 32.6416 28.9946 33.6646 27.9717C34.6874 26.9487 35.4996 25.7369 36.0995 24.3362C36.6997 22.9357 37.0001 21.4642 37.0001 19.9226V4.26899C36.9998 3.08286 36.5851 2.075 35.7546 1.24509Z" fill="#F6762C"/>
</svg>
